<svg id="visual" viewBox="0 0 960 540" width="960" height="540" xmlns="http://www.w3.org/2000/svg" xmlns:xlink="http://www.w3.org/1999/xlink" version="1.1"><rect x="0" y="0" width="960" height="540" fill="#f1f1f1"></rect><defs><linearGradient id="grad1_0" x1="43.8%" y1="100%" x2="100%" y2="0%"><stop offset="14.444444444444446%" stop-color="#f1f1f1" stop-opacity="1"></stop><stop offset="85.55555555555554%" stop-color="#f1f1f1" stop-opacity="1"></stop></linearGradient></defs><defs><linearGradient id="grad2_0" x1="0%" y1="100%" x2="56.3%" y2="0%"><stop offset="14.444444444444446%" stop-color="#f1f1f1" stop-opacity="1"></stop><stop offset="85.55555555555554%" stop-color="#f1f1f1" stop-opacity="1"></stop></linearGradient></defs><g transform="translate(960, 540)"><path d="M-426 0C-442.9 -42.3 -459.9 -84.6 -443.4 -118.8C-426.8 -153 -376.9 -179.1 -335.2 -193.5C-293.4 -207.9 -259.9 -210.8 -244.7 -244.7C-229.4 -278.5 -232.5 -343.5 -207.5 -359.4C-182.5 -375.3 -129.6 -342.2 -90.3 -337.1C-51.1 -332 -25.5 -355 0 -378L0 0Z" fill="#0046ff"></path></g><g transform="translate(0, 0)"><path d="M346 0C387.5 38.3 428.9 76.6 439.5 117.8C450.1 159 429.8 203.1 397.5 229.5C365.2 255.9 320.9 264.6 290.6 290.6C260.4 316.7 244.2 360.1 212.5 368.1C180.8 376.1 133.8 348.6 95.8 357.4C57.8 366.1 28.9 411.1 0 456L0 0Z" fill="#0046ff"></path></g></svg>