<!--?xml version="1.0" standalone="no"?-->
              <svg id="sw-js-blob-svg" viewBox="0 0 100 100" xmlns="http://www.w3.org/2000/svg" version="1.1">
                    <defs> 
                        <linearGradient id="sw-gradient" x1="0" x2="1" y1="1" y2="0">
                            <stop id="stop1" stop-color="rgba(242.549, 227.146, 10.356, 1)" offset="0%"></stop>
                            <stop id="stop2" stop-color="rgba(251, 236.406, 31, 1)" offset="100%"></stop>
                        </linearGradient>
                    </defs>
                <path fill="url(#sw-gradient)" d="M10.8,-12.9C18.3,-12,31.6,-16.3,36.1,-14.2C40.6,-12.1,36.4,-3.7,31.1,1.6C25.8,6.9,19.5,9.2,14.6,9.9C9.7,10.7,6.2,10,2,15C-2.3,20,-7.2,30.8,-12.4,33.4C-17.7,36,-23.1,30.4,-25.4,24.1C-27.7,17.8,-26.9,10.8,-27.3,4.3C-27.6,-2.2,-29.2,-8.1,-26.9,-11.9C-24.6,-15.7,-18.3,-17.3,-13.2,-19.2C-8.1,-21.1,-4,-23.3,-1.2,-21.5C1.7,-19.7,3.3,-13.7,10.8,-12.9Z" width="100%" height="100%" transform="translate(50 50)" stroke-width="0" style="transition: all 0.3s ease 0s;"></path>
              </svg>