<!--?xml version="1.0" standalone="no"?-->
              <svg id="sw-js-blob-svg" viewBox="0 0 100 100" xmlns="http://www.w3.org/2000/svg" version="1.1">
                    <defs> 
                        <linearGradient id="sw-gradient" x1="0" x2="1" y1="1" y2="0">
                            <stop id="stop1" stop-color="rgba(10.356, 116.703, 242.549, 1)" offset="0%"></stop>
                            <stop id="stop2" stop-color="rgba(31, 87.048, 251, 1)" offset="100%"></stop>
                        </linearGradient>
                    </defs>
                <path fill="url(#sw-gradient)" d="M20.6,-34.1C27.9,-31.6,35.6,-28.3,38.1,-22.5C40.5,-16.7,37.8,-8.3,37.5,-0.2C37.2,8,39.3,16,36.6,21.4C33.9,26.8,26.4,29.7,19.5,32.7C12.6,35.6,6.3,38.6,0.6,37.6C-5,36.5,-10.1,31.3,-15,27.2C-20,23.2,-24.9,20.2,-29.1,15.8C-33.2,11.5,-36.5,5.7,-37.9,-0.8C-39.4,-7.4,-39,-14.8,-35,-19.4C-31,-23.9,-23.4,-25.6,-16.9,-28.6C-10.5,-31.6,-5.2,-35.9,0.7,-37.1C6.7,-38.4,13.4,-36.6,20.6,-34.1Z" width="100%" height="100%" transform="translate(50 50)" stroke-width="0" style="transition: all 0.3s ease 0s;"></path>
              </svg>